<?xml version="1.0" encoding="utf-8"?>
<!-- Generator: Adobe Illustrator 26.4.1, SVG Export Plug-In . SVG Version: 6.00 Build 0)  -->
<svg version="1.1" id="Layer_1" xmlns="http://www.w3.org/2000/svg" xmlns:xlink="http://www.w3.org/1999/xlink" x="0px" y="0px"
	 viewBox="0 0 24 24" style="enable-background:new 0 0 24 24;" xml:space="preserve">
<style type="text/css">
	.st0{fill:url(#SVGID_1_);}
	.st1{fill:#FFFFFF;}
</style>
<linearGradient id="SVGID_1_" gradientUnits="userSpaceOnUse" x1="24" y1="24" x2="-1.918465e-13" y2="-1.953993e-13">
	<stop  offset="0" style="stop-color:#0F766E"/>
	<stop  offset="1" style="stop-color:#19BDAB"/>
</linearGradient>
<rect class="st0" width="24" height="24"/>
<path class="st1" d="M20,10.3h-2.2l-3.1-5.4c-0.1-0.2-0.4-0.3-0.5-0.1c-0.2,0.1-0.3,0.4-0.1,0.5l2.9,5H7.1l2.9-5
	c0.1-0.2,0-0.4-0.1-0.5c-0.2-0.1-0.4,0-0.5,0.1l-3.1,5.4H4c-0.2,0-0.4,0.2-0.4,0.4c0,0.2,0.2,0.4,0.4,0.4h0.9l1.2,5.6
	c0.2,0.9,1,1.6,2,1.6c0,0,0,0,0,0h7.8c0.9,0,1.8-0.7,2-1.6l1.3-5.6H20c0.2,0,0.4-0.2,0.4-0.4C20.4,10.5,20.2,10.3,20,10.3z
	 M10.4,13.9L10,11.1H14l-0.3,2.8H10.4z M13.6,14.7l-0.3,2.8h-2.5l-0.3-2.8H13.6z M9.2,11.1l0.3,2.8H6.3l-0.6-2.8H9.2z M8.1,17.5
	c-0.6,0-1.1-0.4-1.2-1l-0.4-1.8h3.2l0.3,2.8H8.1z M17.1,16.6c-0.1,0.5-0.7,1-1.2,1H14l0.3-2.8h3.2L17.1,16.6z M17.7,13.9h-3.3
	l0.3-2.8h3.6L17.7,13.9z"/>
</svg>
