<?xml version="1.0" encoding="utf-8"?>
<!-- Generator: Adobe Illustrator 26.4.1, SVG Export Plug-In . SVG Version: 6.00 Build 0)  -->
<svg version="1.1" id="Layer_1" xmlns="http://www.w3.org/2000/svg" xmlns:xlink="http://www.w3.org/1999/xlink" x="0px" y="0px"
	 viewBox="0 0 200 154" style="enable-background:new 0 0 200 154;" xml:space="preserve">
<style type="text/css">
	.st0{fill:url(#SVGID_1_);}
	.st1{fill:#1E293B;}
	.st2{fill:#475569;}
	.st3{fill:url(#SVGID_00000005247728390782040380000005116520321769027712_);}
</style>
<linearGradient id="SVGID_1_" gradientUnits="userSpaceOnUse" x1="137.267" y1="93.7553" x2="62.5933" y2="19.0816">
	<stop  offset="0" style="stop-color:#14B8A6"/>
	<stop  offset="1" style="stop-color:#5EEAD4"/>
</linearGradient>
<path class="st0" d="M157.1,40h-15.5l-22-38.6c-0.8-1.4-2.5-1.8-3.9-1.1c-1.4,0.8-1.8,2.5-1.1,3.9L135.1,40H64.9L85.3,4.3
	c0.8-1.4,0.3-3.1-1.1-3.9c-1.4-0.8-3.1-0.3-3.9,1.1L58.3,40H42.9c-1.6,0-2.9,1.3-2.9,2.9c0,1.6,1.3,2.9,2.9,2.9h6.3l8.7,40
	c1.4,6.7,7.2,11.4,13.9,11.4c0.1,0,0.2,0,0.3,0h56c6.6,0,12.8-5,14.2-11.4l9.2-40.1h5.7c1.6,0,2.9-1.3,2.9-2.9
	C160,41.3,158.7,40,157.1,40z M88.3,65.7l-2.2-20h27.9l-2.2,20H88.3z M111.1,71.4l-2.2,20H91.1l-2.2-20H111.1z M80.3,45.7l2.2,20
	H59.3l-4.3-20H80.3z M71.9,91.4c-4,0-7.7-2.8-8.6-6.9l-2.8-13.1h22.6l2.2,20H71.9z M136.6,84.5c-0.8,3.7-4.8,6.9-8.6,6.9h-13.4
	l2.2-20h22.8L136.6,84.5z M141,65.7h-23.5l2.2-20h25.9L141,65.7z"/>
<g>
	<path class="st1" d="M26.1,136.3c-0.9-0.9-2.1-1.6-3.4-2.3c-1.3-0.6-2.9-1.1-4.7-1.5l-3.1-0.7c-0.8-0.2-1.5-0.4-2.2-0.6
		c-0.6-0.2-1.2-0.5-1.7-0.8c-0.5-0.3-0.8-0.7-1-1.1c-0.2-0.4-0.3-0.9-0.3-1.4c0-0.6,0.2-1.2,0.6-1.7c0.4-0.5,0.9-0.9,1.7-1.2
		c0.7-0.3,1.7-0.4,2.8-0.4c1.7,0,3,0.4,3.9,1.1c0.9,0.7,1.4,1.7,1.5,3h8.2c0-2.2-0.6-4.2-1.7-5.8c-1.1-1.7-2.7-3-4.7-3.9
		c-2-0.9-4.4-1.4-7.2-1.4c-2.7,0-5.1,0.5-7.2,1.4c-2.1,0.9-3.8,2.2-4.9,3.9c-1.2,1.7-1.8,3.6-1.8,5.8c0,2.7,0.9,4.8,2.6,6.4
		c1.8,1.6,4.2,2.7,7.3,3.4l3.7,0.9c1.3,0.3,2.4,0.6,3.2,1c0.8,0.4,1.5,0.8,1.9,1.3c0.4,0.5,0.6,1.1,0.6,1.7c0,0.7-0.2,1.4-0.7,1.9
		c-0.4,0.6-1.1,1-1.9,1.3c-0.8,0.3-1.8,0.5-3,0.5c-1.3,0-2.4-0.2-3.3-0.6c-1-0.4-1.7-1-2.2-1.7c-0.5-0.8-0.9-1.7-0.9-2.9H0
		c0,2.8,0.7,5.1,1.9,6.9c1.2,1.8,2.9,3.2,5.2,4.1c2.2,0.9,4.8,1.3,7.8,1.3c3,0,5.5-0.4,7.6-1.3c2.1-0.9,3.7-2.1,4.8-3.7
		c1.1-1.6,1.7-3.5,1.7-5.8c0-1.4-0.3-2.7-0.7-3.9C27.8,138.2,27.1,137.2,26.1,136.3z"/>
	<polygon class="st1" points="55,132.2 41,132.2 41,118 32.4,118 32.4,153.5 41,153.5 41,139.2 55,139.2 55,153.5 63.6,153.5 
		63.6,118 55,118 	"/>
	<path class="st1" d="M93.3,119.6c-2.6-1.4-5.4-2.1-8.6-2.1c-3.2,0-6.1,0.7-8.6,2.1c-2.6,1.4-4.6,3.5-6.1,6.2
		c-1.5,2.7-2.2,6-2.2,9.9c0,3.9,0.7,7.2,2.2,9.9c1.5,2.7,3.5,4.8,6.1,6.2c2.6,1.4,5.4,2.1,8.6,2.1c3.2,0,6.1-0.7,8.6-2.1
		s4.6-3.5,6.1-6.2c1.5-2.7,2.3-6,2.3-9.9c0-3.9-0.8-7.2-2.3-9.9C97.9,123.1,95.8,121,93.3,119.6z M91.8,141.6
		c-0.7,1.6-1.6,2.8-2.8,3.6c-1.2,0.8-2.7,1.2-4.4,1.2c-1.7,0-3.2-0.4-4.4-1.2c-1.2-0.8-2.2-2-2.8-3.6c-0.7-1.6-1-3.6-1-5.9
		c0-2.3,0.3-4.3,1-5.9c0.7-1.6,1.6-2.8,2.8-3.6c1.2-0.8,2.7-1.2,4.4-1.2c1.7,0,3.2,0.4,4.4,1.2c1.2,0.8,2.2,2,2.8,3.6
		c0.7,1.6,1,3.6,1,5.9C92.8,138,92.5,140,91.8,141.6z"/>
	<path class="st1" d="M131.8,123.8c-1.1-1.8-2.5-3.3-4.5-4.3c-1.9-1-4.2-1.6-6.9-1.6h-14.7v35.6h8.6v-11h5.8c2.7,0,5.1-0.5,7-1.5
		c2-1,3.5-2.4,4.6-4.3c1.1-1.8,1.6-4,1.6-6.4C133.4,127.8,132.8,125.7,131.8,123.8z M123.8,133.1c-0.5,0.8-1.1,1.4-2,1.9
		c-0.9,0.5-2,0.7-3.3,0.7h-4.2v-10.8h4.2c1.3,0,2.4,0.2,3.2,0.7c0.9,0.4,1.5,1.1,2,1.9c0.5,0.8,0.7,1.8,0.7,2.9
		C124.5,131.4,124.2,132.3,123.8,133.1z"/>
</g>
<g>
	<polygon class="st2" points="142.1,117.8 139.3,117.8 139.3,141.6 153.2,141.6 153.2,139 142.1,139 	"/>
	<rect x="156.4" y="117.8" class="st2" width="2.9" height="23.8"/>
	<path class="st2" d="M177.5,130.4c-0.7-0.5-1.4-0.9-2.2-1.2c-0.8-0.3-1.5-0.5-2.1-0.7l-2.4-0.7c-0.4-0.1-0.9-0.3-1.5-0.5
		c-0.5-0.2-1-0.4-1.5-0.7c-0.5-0.3-0.9-0.7-1.2-1.1c-0.3-0.5-0.5-1-0.5-1.6c0-0.8,0.2-1.4,0.7-2c0.4-0.6,1-1.1,1.8-1.4
		c0.8-0.3,1.7-0.5,2.8-0.5c1.4,0,2.7,0.3,3.6,1c1,0.7,1.6,1.6,1.7,2.7h2.8c0-1.2-0.4-2.3-1.1-3.2c-0.7-0.9-1.6-1.7-2.8-2.2
		c-1.2-0.5-2.6-0.8-4.1-0.8c-1.5,0-2.9,0.3-4.1,0.8s-2.2,1.3-2.9,2.3s-1.1,2.2-1.1,3.5c0,1.6,0.5,2.9,1.6,3.9c1.1,1,2.6,1.8,4.4,2.3
		l2.9,0.8c0.8,0.2,1.6,0.5,2.3,0.8c0.7,0.3,1.3,0.7,1.7,1.2c0.4,0.5,0.7,1.1,0.7,1.9c0,0.9-0.3,1.6-0.8,2.3
		c-0.5,0.6-1.2,1.1-2.1,1.5c-0.9,0.4-1.9,0.5-3,0.5c-0.9,0-1.8-0.1-2.6-0.4c-0.8-0.3-1.5-0.7-2-1.3c-0.5-0.6-0.8-1.3-0.9-2.2h-3
		c0.1,1.3,0.5,2.4,1.2,3.4c0.7,1,1.7,1.7,2.9,2.3c1.2,0.5,2.7,0.8,4.4,0.8c1.8,0,3.4-0.3,4.7-0.9c1.3-0.6,2.3-1.4,2.9-2.5
		c0.7-1,1-2.2,1-3.5c0-1.1-0.2-2.1-0.7-2.8C178.8,131.5,178.2,130.9,177.5,130.4z"/>
	<polygon class="st2" points="182.2,117.8 182.2,120.3 189.6,120.3 189.6,141.6 192.5,141.6 192.5,120.3 200,120.3 200,117.8 	"/>
</g>
<linearGradient id="SVGID_00000094617825920173455600000001939633920417455757_" gradientUnits="userSpaceOnUse" x1="121.466" y1="150.8034" x2="200" y2="150.8034">
	<stop  offset="0" style="stop-color:#14B8A6"/>
	<stop  offset="1" style="stop-color:#5EEAD4"/>
</linearGradient>
<rect x="121.5" y="147.6" style="fill:url(#SVGID_00000094617825920173455600000001939633920417455757_);" width="78.5" height="6.4"/>
</svg>
