<?xml version="1.0" encoding="utf-8"?>
<!-- Generator: Adobe Illustrator 26.4.1, SVG Export Plug-In . SVG Version: 6.00 Build 0)  -->
<svg version="1.1" id="Layer_1" xmlns="http://www.w3.org/2000/svg" xmlns:xlink="http://www.w3.org/1999/xlink" x="0px" y="0px"
	 viewBox="0 0 278 40" style="enable-background:new 0 0 278 40;" xml:space="preserve">
<style type="text/css">
	.st0{fill:url(#SVGID_1_);}
	.st1{fill:#FFFFFF;}
	.st2{fill:#CBD5E1;}
	.st3{fill:url(#SVGID_00000134951384246190726080000013721049921257324188_);}
</style>
<g>
	
		<linearGradient id="SVGID_1_" gradientUnits="userSpaceOnUse" x1="40.3253" y1="3.4245" x2="9.6072" y2="34.1426" gradientTransform="matrix(1 0 0 -1 0 42)">
		<stop  offset="0" style="stop-color:#14B8A6"/>
		<stop  offset="1" style="stop-color:#5EEAD4"/>
	</linearGradient>
	<path class="st0" d="M48.5,16.5h-6.4L33.1,0.6c-0.3-0.6-1-0.7-1.6-0.5c-0.6,0.3-0.7,1-0.5,1.6l8.4,14.7H10.5l8.4-14.7
		c0.3-0.6,0.1-1.3-0.5-1.6s-1.3-0.1-1.6,0.5L7.8,16.5H1.5c-0.7,0-1.2,0.5-1.2,1.2c0,0.7,0.5,1.2,1.2,1.2h2.6l3.6,16.5
		c0.6,2.8,3,4.7,5.7,4.7c0,0,0.1,0,0.1,0h23c2.7,0,5.3-2.1,5.8-4.7l3.8-16.5h2.3c0.7,0,1.2-0.5,1.2-1.2C49.7,17,49.1,16.5,48.5,16.5
		z M20.2,27l-0.9-8.2h11.5L29.8,27H20.2z M29.6,29.4l-0.9,8.2h-7.3l-0.9-8.2H29.6z M16.9,18.8l0.9,8.2H8.2l-1.8-8.2
		C6.5,18.8,16.9,18.8,16.9,18.8z M13.4,37.6c-1.6,0-3.2-1.2-3.5-2.8l-1.2-5.4H18l0.9,8.2H13.4z M40,34.8c-0.3,1.5-2,2.8-3.5,2.8H31
		l0.9-8.2h9.4L40,34.8z M41.9,27h-9.7l0.9-8.2h10.7L41.9,27z"/>
	<g>
		<g>
			<path class="st1" d="M88.2,20.5c-1-1-2.3-1.7-3.7-2.5c-1.4-0.7-3.2-1.2-5.1-1.6L76,15.6c-0.9-0.2-1.6-0.4-2.4-0.7
				c-0.7-0.2-1.3-0.5-1.9-0.9c-0.5-0.3-0.9-0.8-1.1-1.2c-0.2-0.4-0.3-1-0.3-1.5c0-0.7,0.2-1.3,0.7-1.9c0.4-0.5,1-1,1.9-1.3
				c0.8-0.3,1.9-0.4,3.1-0.4c1.9,0,3.3,0.4,4.3,1.2s1.5,1.9,1.6,3.3h8.9c0-2.4-0.7-4.6-1.9-6.3c-1.2-1.9-2.9-3.3-5.1-4.3
				s-4.8-1.5-7.8-1.5c-2.9,0-5.6,0.5-7.8,1.5c-2.3,1-4.1,2.4-5.3,4.3c-1.3,1.9-2,3.9-2,6.3c0,2.9,1,5.2,2.8,7c2,1.7,4.6,2.9,8,3.7
				l4,1c1.4,0.3,2.6,0.7,3.5,1.1c0.9,0.4,1.6,0.9,2.1,1.4s0.7,1.2,0.7,1.9c0,0.8-0.2,1.5-0.8,2.1c-0.4,0.7-1.2,1.1-2.1,1.4
				c-0.9,0.3-2,0.5-3.3,0.5c-1.4,0-2.6-0.2-3.6-0.7c-1.1-0.4-1.9-1.1-2.4-1.9c-0.5-0.9-1-1.9-1-3.2h-8.9c0,3.1,0.8,5.6,2.1,7.5
				c1.3,2,3.2,3.5,5.7,4.5c2.4,1,5.2,1.4,8.5,1.4s6-0.4,8.3-1.4c2.3-1,4-2.3,5.2-4c1.2-1.7,1.9-3.8,1.9-6.3c0-1.5-0.3-2.9-0.8-4.3
				C90,22.6,89.2,21.5,88.2,20.5z"/>
			<polygon class="st1" points="119.7,16 104.4,16 104.4,0.5 95,0.5 95,39.2 104.4,39.2 104.4,23.7 119.7,23.7 119.7,39.2 129,39.2 
				129,0.5 119.7,0.5 			"/>
			<path class="st1" d="M161.4,2.3C158.6,0.8,155.5,0,152,0s-6.6,0.8-9.4,2.3c-2.8,1.5-5,3.8-6.6,6.8c-1.6,2.9-2.4,6.5-2.4,10.8
				c0,4.3,0.8,7.8,2.4,10.8c1.6,2.9,3.8,5.2,6.6,6.8c2.8,1.5,5.9,2.3,9.4,2.3s6.6-0.8,9.4-2.3c2.7-1.5,5-3.8,6.6-6.8
				c1.6-2.9,2.5-6.5,2.5-10.8S169.7,12,168,9C166.4,6.1,164.1,3.8,161.4,2.3z M159.8,26.3c-0.8,1.7-1.7,3.1-3.1,3.9
				c-1.3,0.9-2.9,1.3-4.8,1.3s-3.5-0.4-4.8-1.3c-1.3-0.9-2.4-2.2-3.1-3.9c-0.8-1.7-1.1-3.9-1.1-6.4c0-2.5,0.3-4.7,1.1-6.4
				c0.8-1.7,1.7-3.1,3.1-3.9c1.3-0.9,2.9-1.3,4.8-1.3c1.9,0,3.5,0.4,4.8,1.3c1.3,0.9,2.4,2.2,3.1,3.9c0.8,1.7,1.1,3.9,1.1,6.4
				S160.5,24.5,159.8,26.3z"/>
			<path class="st1" d="M203.4,6.9c-1.2-2-2.7-3.6-4.9-4.7c-2.1-1.1-4.6-1.7-7.5-1.7h-16v38.8h9.4v-12h6.3c2.9,0,5.6-0.5,7.6-1.6
				c2.2-1.1,3.8-2.6,5-4.7c1.2-2,1.7-4.4,1.7-7C205.1,11.2,204.5,8.9,203.4,6.9z M194.6,17c-0.5,0.9-1.2,1.5-2.2,2.1
				s-2.2,0.8-3.6,0.8h-4.6V8.1h4.6c1.4,0,2.6,0.2,3.5,0.8c1,0.4,1.6,1.2,2.2,2.1c0.5,0.9,0.8,2,0.8,3.2
				C195.4,15.1,195.1,16.1,194.6,17z"/>
		</g>
		<g>
			<polygon class="st2" points="214.6,0.3 211.5,0.3 211.5,26.3 226.7,26.3 226.7,23.4 214.6,23.4 			"/>
			<rect x="230.2" y="0.3" class="st2" width="3.2" height="25.9"/>
			<path class="st2" d="M253.2,14.1c-0.8-0.5-1.5-1-2.4-1.3c-0.9-0.3-1.6-0.5-2.3-0.8l-2.6-0.8c-0.4-0.1-1-0.3-1.6-0.5
				c-0.5-0.2-1.1-0.4-1.6-0.8c-0.5-0.3-1-0.8-1.3-1.2c-0.3-0.5-0.5-1.1-0.5-1.7c0-0.9,0.2-1.5,0.8-2.2c0.4-0.7,1.1-1.2,2-1.5
				c0.9-0.3,1.9-0.5,3.1-0.5c1.5,0,2.9,0.3,3.9,1.1c1.1,0.8,1.7,1.7,1.9,2.9h3.1c0-1.3-0.4-2.5-1.2-3.5c-0.8-1-1.7-1.9-3.1-2.4
				c-1.3-0.5-2.8-0.9-4.5-0.9c-1.6,0-3.2,0.3-4.5,0.9c-1.3,0.5-2.4,1.4-3.2,2.5s-1.2,2.4-1.2,3.8c0,1.7,0.5,3.2,1.7,4.3
				s2.8,2,4.8,2.5l3.2,0.9c0.9,0.2,1.7,0.5,2.5,0.9c0.8,0.3,1.4,0.8,1.9,1.3c0.4,0.5,0.8,1.2,0.8,2.1c0,1-0.3,1.7-0.9,2.5
				c-0.5,0.7-1.3,1.2-2.3,1.6c-1,0.4-2.1,0.5-3.3,0.5c-1,0-2-0.1-2.8-0.4c-0.9-0.3-1.6-0.8-2.2-1.4c-0.5-0.7-0.9-1.4-1-2.4h-3.3
				c0.1,1.4,0.5,2.6,1.3,3.7c0.8,1.1,1.9,1.9,3.2,2.5c1.3,0.5,2.9,0.9,4.8,0.9c2,0,3.7-0.3,5.1-1c1.4-0.7,2.5-1.5,3.2-2.7
				c0.8-1.1,1.1-2.4,1.1-3.8c0-1.2-0.2-2.3-0.8-3.1C254.6,15.3,253.9,14.6,253.2,14.1z"/>
			<polygon class="st2" points="258.3,0.3 258.3,3.1 266.4,3.1 266.4,26.3 269.5,26.3 269.5,3.1 277.7,3.1 277.7,0.3 			"/>
		</g>
		
			<linearGradient id="SVGID_00000113337185175383391820000011559587024726633383_" gradientUnits="userSpaceOnUse" x1="192.1357" y1="5.7057" x2="277.6944" y2="5.7057" gradientTransform="matrix(1 0 0 -1 0 42)">
			<stop  offset="0" style="stop-color:#5EEAD4"/>
			<stop  offset="1" style="stop-color:#14B8A6"/>
		</linearGradient>
		
			<rect x="192.1" y="32.8" style="fill:url(#SVGID_00000113337185175383391820000011559587024726633383_);" width="85.6" height="7"/>
	</g>
</g>
</svg>
